<mxfile host="Electron" agent="Mozilla/5.0 (Windows NT 10.0; Win64; x64) AppleWebKit/537.36 (KHTML, like Gecko) draw.io/28.2.5 Chrome/138.0.7204.251 Electron/37.6.1 Safari/537.36" version="28.2.5">
  <diagram id="C5RBs43oDa-KdzZeNtuy" name="Page-1">
    <mxGraphModel dx="798" dy="983" grid="1" gridSize="10" guides="1" tooltips="1" connect="1" arrows="1" fold="1" page="1" pageScale="1" pageWidth="827" pageHeight="1169" math="0" shadow="0">
      <root>
        <mxCell id="WIyWlLk6GJQsqaUBKTNV-0" />
        <mxCell id="WIyWlLk6GJQsqaUBKTNV-1" parent="WIyWlLk6GJQsqaUBKTNV-0" />
        <mxCell id="lE0Cp_mM_xBirJ8UAe_x-2" value="" style="edgeStyle=orthogonalEdgeStyle;rounded=0;orthogonalLoop=1;jettySize=auto;html=1;" edge="1" parent="WIyWlLk6GJQsqaUBKTNV-1" source="lE0Cp_mM_xBirJ8UAe_x-0" target="lE0Cp_mM_xBirJ8UAe_x-1">
          <mxGeometry relative="1" as="geometry" />
        </mxCell>
        <mxCell id="lE0Cp_mM_xBirJ8UAe_x-0" value="algus" style="ellipse;whiteSpace=wrap;html=1;" vertex="1" parent="WIyWlLk6GJQsqaUBKTNV-1">
          <mxGeometry x="310" y="90" width="160" height="80" as="geometry" />
        </mxCell>
        <mxCell id="lE0Cp_mM_xBirJ8UAe_x-4" value="" style="edgeStyle=orthogonalEdgeStyle;rounded=0;orthogonalLoop=1;jettySize=auto;html=1;" edge="1" parent="WIyWlLk6GJQsqaUBKTNV-1" source="lE0Cp_mM_xBirJ8UAe_x-1" target="lE0Cp_mM_xBirJ8UAe_x-3">
          <mxGeometry relative="1" as="geometry" />
        </mxCell>
        <mxCell id="lE0Cp_mM_xBirJ8UAe_x-1" value="kuva kasutaja tekst&amp;nbsp;&lt;div&gt;&quot;sisesta ostusumma&quot;&lt;/div&gt;" style="shape=parallelogram;perimeter=parallelogramPerimeter;whiteSpace=wrap;html=1;fixedSize=1;" vertex="1" parent="WIyWlLk6GJQsqaUBKTNV-1">
          <mxGeometry x="315" y="260" width="150" height="60" as="geometry" />
        </mxCell>
        <mxCell id="lE0Cp_mM_xBirJ8UAe_x-8" value="" style="edgeStyle=orthogonalEdgeStyle;rounded=0;orthogonalLoop=1;jettySize=auto;html=1;" edge="1" parent="WIyWlLk6GJQsqaUBKTNV-1" source="lE0Cp_mM_xBirJ8UAe_x-3" target="lE0Cp_mM_xBirJ8UAe_x-7">
          <mxGeometry relative="1" as="geometry" />
        </mxCell>
        <mxCell id="lE0Cp_mM_xBirJ8UAe_x-3" value="tekitame muutuja&lt;div&gt;&quot;ostusumma&quot; mille sisse&lt;/div&gt;&lt;div&gt;loeme väärtuse kasutajalt&lt;/div&gt;" style="shape=parallelogram;perimeter=parallelogramPerimeter;whiteSpace=wrap;html=1;fixedSize=1;" vertex="1" parent="WIyWlLk6GJQsqaUBKTNV-1">
          <mxGeometry x="290" y="400" width="200" height="60" as="geometry" />
        </mxCell>
        <mxCell id="lE0Cp_mM_xBirJ8UAe_x-10" value="JAH" style="edgeStyle=orthogonalEdgeStyle;rounded=0;orthogonalLoop=1;jettySize=auto;html=1;" edge="1" parent="WIyWlLk6GJQsqaUBKTNV-1" source="lE0Cp_mM_xBirJ8UAe_x-7" target="lE0Cp_mM_xBirJ8UAe_x-9">
          <mxGeometry relative="1" as="geometry" />
        </mxCell>
        <mxCell id="lE0Cp_mM_xBirJ8UAe_x-12" value="EI" style="edgeStyle=orthogonalEdgeStyle;rounded=0;orthogonalLoop=1;jettySize=auto;html=1;entryX=0.5;entryY=0;entryDx=0;entryDy=0;" edge="1" parent="WIyWlLk6GJQsqaUBKTNV-1" source="lE0Cp_mM_xBirJ8UAe_x-7" target="lE0Cp_mM_xBirJ8UAe_x-11">
          <mxGeometry relative="1" as="geometry" />
        </mxCell>
        <mxCell id="lE0Cp_mM_xBirJ8UAe_x-7" value="kas kasutaja ostusumma on suurem kui 100?" style="rhombus;whiteSpace=wrap;html=1;" vertex="1" parent="WIyWlLk6GJQsqaUBKTNV-1">
          <mxGeometry x="320" y="510" width="140" height="130" as="geometry" />
        </mxCell>
        <mxCell id="lE0Cp_mM_xBirJ8UAe_x-35" style="edgeStyle=orthogonalEdgeStyle;rounded=0;orthogonalLoop=1;jettySize=auto;html=1;entryX=1;entryY=0.5;entryDx=0;entryDy=0;" edge="1" parent="WIyWlLk6GJQsqaUBKTNV-1" source="lE0Cp_mM_xBirJ8UAe_x-9" target="lE0Cp_mM_xBirJ8UAe_x-30">
          <mxGeometry relative="1" as="geometry">
            <Array as="points">
              <mxPoint x="720" y="575" />
              <mxPoint x="720" y="1438" />
            </Array>
          </mxGeometry>
        </mxCell>
        <mxCell id="lE0Cp_mM_xBirJ8UAe_x-9" value="kuvame kasutaja teksti &quot;saad 20% allahindust&quot;" style="shape=parallelogram;perimeter=parallelogramPerimeter;whiteSpace=wrap;html=1;fixedSize=1;" vertex="1" parent="WIyWlLk6GJQsqaUBKTNV-1">
          <mxGeometry x="550" y="537.5" width="150" height="75" as="geometry" />
        </mxCell>
        <mxCell id="lE0Cp_mM_xBirJ8UAe_x-14" value="JAH" style="edgeStyle=orthogonalEdgeStyle;rounded=0;orthogonalLoop=1;jettySize=auto;html=1;" edge="1" parent="WIyWlLk6GJQsqaUBKTNV-1" source="lE0Cp_mM_xBirJ8UAe_x-11" target="lE0Cp_mM_xBirJ8UAe_x-13">
          <mxGeometry relative="1" as="geometry" />
        </mxCell>
        <mxCell id="lE0Cp_mM_xBirJ8UAe_x-16" value="EI" style="edgeStyle=orthogonalEdgeStyle;rounded=0;orthogonalLoop=1;jettySize=auto;html=1;" edge="1" parent="WIyWlLk6GJQsqaUBKTNV-1" source="lE0Cp_mM_xBirJ8UAe_x-11" target="lE0Cp_mM_xBirJ8UAe_x-15">
          <mxGeometry relative="1" as="geometry" />
        </mxCell>
        <mxCell id="lE0Cp_mM_xBirJ8UAe_x-11" value="kas kasutaja ostusumma on suurem kui 50 ja väiksem kui 101?" style="rhombus;whiteSpace=wrap;html=1;" vertex="1" parent="WIyWlLk6GJQsqaUBKTNV-1">
          <mxGeometry x="320" y="690" width="140" height="130" as="geometry" />
        </mxCell>
        <mxCell id="lE0Cp_mM_xBirJ8UAe_x-34" style="edgeStyle=orthogonalEdgeStyle;rounded=0;orthogonalLoop=1;jettySize=auto;html=1;entryX=1;entryY=0.5;entryDx=0;entryDy=0;" edge="1" parent="WIyWlLk6GJQsqaUBKTNV-1" source="lE0Cp_mM_xBirJ8UAe_x-13" target="lE0Cp_mM_xBirJ8UAe_x-30">
          <mxGeometry relative="1" as="geometry">
            <Array as="points">
              <mxPoint x="720" y="755" />
              <mxPoint x="720" y="1438" />
            </Array>
          </mxGeometry>
        </mxCell>
        <mxCell id="lE0Cp_mM_xBirJ8UAe_x-13" value="Kuvame kasutajale teksti &quot;saad 10% allahindlust&quot;" style="shape=parallelogram;perimeter=parallelogramPerimeter;whiteSpace=wrap;html=1;fixedSize=1;" vertex="1" parent="WIyWlLk6GJQsqaUBKTNV-1">
          <mxGeometry x="540" y="725" width="130" height="60" as="geometry" />
        </mxCell>
        <mxCell id="lE0Cp_mM_xBirJ8UAe_x-18" value="JAH" style="edgeStyle=orthogonalEdgeStyle;rounded=0;orthogonalLoop=1;jettySize=auto;html=1;" edge="1" parent="WIyWlLk6GJQsqaUBKTNV-1" source="lE0Cp_mM_xBirJ8UAe_x-15" target="lE0Cp_mM_xBirJ8UAe_x-17">
          <mxGeometry relative="1" as="geometry" />
        </mxCell>
        <mxCell id="lE0Cp_mM_xBirJ8UAe_x-23" value="EI" style="edgeStyle=orthogonalEdgeStyle;rounded=0;orthogonalLoop=1;jettySize=auto;html=1;entryX=0.5;entryY=0;entryDx=0;entryDy=0;" edge="1" parent="WIyWlLk6GJQsqaUBKTNV-1" source="lE0Cp_mM_xBirJ8UAe_x-15">
          <mxGeometry relative="1" as="geometry">
            <mxPoint x="390" y="1089.9999999999998" as="targetPoint" />
          </mxGeometry>
        </mxCell>
        <mxCell id="lE0Cp_mM_xBirJ8UAe_x-15" value="kas kasutaja ostusumma on suurem kui 20 ja väiksem kui 51?" style="rhombus;whiteSpace=wrap;html=1;" vertex="1" parent="WIyWlLk6GJQsqaUBKTNV-1">
          <mxGeometry x="320" y="900" width="140" height="130" as="geometry" />
        </mxCell>
        <mxCell id="lE0Cp_mM_xBirJ8UAe_x-33" style="edgeStyle=orthogonalEdgeStyle;rounded=0;orthogonalLoop=1;jettySize=auto;html=1;entryX=1;entryY=0.5;entryDx=0;entryDy=0;" edge="1" parent="WIyWlLk6GJQsqaUBKTNV-1" source="lE0Cp_mM_xBirJ8UAe_x-17" target="lE0Cp_mM_xBirJ8UAe_x-30">
          <mxGeometry relative="1" as="geometry">
            <Array as="points">
              <mxPoint x="720" y="965" />
              <mxPoint x="720" y="1438" />
            </Array>
          </mxGeometry>
        </mxCell>
        <mxCell id="lE0Cp_mM_xBirJ8UAe_x-17" value="Kuvame kasutajale teksti &quot;saad 5% allahindlust&quot;" style="shape=parallelogram;perimeter=parallelogramPerimeter;whiteSpace=wrap;html=1;fixedSize=1;" vertex="1" parent="WIyWlLk6GJQsqaUBKTNV-1">
          <mxGeometry x="550" y="935" width="120" height="60" as="geometry" />
        </mxCell>
        <mxCell id="lE0Cp_mM_xBirJ8UAe_x-26" value="JAH" style="edgeStyle=orthogonalEdgeStyle;rounded=0;orthogonalLoop=1;jettySize=auto;html=1;" edge="1" parent="WIyWlLk6GJQsqaUBKTNV-1" source="lE0Cp_mM_xBirJ8UAe_x-24">
          <mxGeometry x="0.0057" relative="1" as="geometry">
            <mxPoint x="560" y="1154.9999999999998" as="targetPoint" />
            <mxPoint as="offset" />
          </mxGeometry>
        </mxCell>
        <mxCell id="lE0Cp_mM_xBirJ8UAe_x-29" value="EI" style="edgeStyle=orthogonalEdgeStyle;rounded=0;orthogonalLoop=1;jettySize=auto;html=1;" edge="1" parent="WIyWlLk6GJQsqaUBKTNV-1" source="lE0Cp_mM_xBirJ8UAe_x-24" target="lE0Cp_mM_xBirJ8UAe_x-28">
          <mxGeometry relative="1" as="geometry" />
        </mxCell>
        <mxCell id="lE0Cp_mM_xBirJ8UAe_x-24" value="kas kasutaja ostusumma on suurem kui 0 ja väiksem kui 21?" style="rhombus;whiteSpace=wrap;html=1;" vertex="1" parent="WIyWlLk6GJQsqaUBKTNV-1">
          <mxGeometry x="320" y="1090" width="140" height="130" as="geometry" />
        </mxCell>
        <mxCell id="lE0Cp_mM_xBirJ8UAe_x-32" value="" style="edgeStyle=orthogonalEdgeStyle;rounded=0;orthogonalLoop=1;jettySize=auto;html=1;entryX=1;entryY=0.5;entryDx=0;entryDy=0;" edge="1" parent="WIyWlLk6GJQsqaUBKTNV-1" source="lE0Cp_mM_xBirJ8UAe_x-27" target="lE0Cp_mM_xBirJ8UAe_x-30">
          <mxGeometry relative="1" as="geometry">
            <Array as="points">
              <mxPoint x="720" y="1160" />
              <mxPoint x="720" y="1438" />
            </Array>
          </mxGeometry>
        </mxCell>
        <mxCell id="lE0Cp_mM_xBirJ8UAe_x-27" value="Kuvame kasutajale teksti &quot;allahindlust ei saa&quot;" style="shape=parallelogram;perimeter=parallelogramPerimeter;whiteSpace=wrap;html=1;fixedSize=1;" vertex="1" parent="WIyWlLk6GJQsqaUBKTNV-1">
          <mxGeometry x="550" y="1130" width="120" height="60" as="geometry" />
        </mxCell>
        <mxCell id="lE0Cp_mM_xBirJ8UAe_x-31" value="" style="edgeStyle=orthogonalEdgeStyle;rounded=0;orthogonalLoop=1;jettySize=auto;html=1;" edge="1" parent="WIyWlLk6GJQsqaUBKTNV-1" source="lE0Cp_mM_xBirJ8UAe_x-28" target="lE0Cp_mM_xBirJ8UAe_x-30">
          <mxGeometry relative="1" as="geometry" />
        </mxCell>
        <mxCell id="lE0Cp_mM_xBirJ8UAe_x-28" value="Kuvame kasutajale teksti &quot;Sisestatud on vigane arv&quot;" style="shape=parallelogram;perimeter=parallelogramPerimeter;whiteSpace=wrap;html=1;fixedSize=1;" vertex="1" parent="WIyWlLk6GJQsqaUBKTNV-1">
          <mxGeometry x="320" y="1270" width="140" height="70" as="geometry" />
        </mxCell>
        <mxCell id="lE0Cp_mM_xBirJ8UAe_x-30" value="Lõpp" style="ellipse;whiteSpace=wrap;html=1;" vertex="1" parent="WIyWlLk6GJQsqaUBKTNV-1">
          <mxGeometry x="350" y="1415" width="80" height="45" as="geometry" />
        </mxCell>
      </root>
    </mxGraphModel>
  </diagram>
</mxfile>
